<?xml version="1.0" standalone="no"?>
<!DOCTYPE svg PUBLIC "-//W3C//DTD SVG 20010904//EN"
 "http://www.w3.org/TR/2001/REC-SVG-20010904/DTD/svg10.dtd">
<svg version="1.0" xmlns="http://www.w3.org/2000/svg"
 width="200.000000pt" height="47.000000pt" viewBox="0 0 200.000000 47.000000"
 preserveAspectRatio="xMidYMid meet">
<metadata>
Created by potrace 1.10, written by Peter Selinger 2001-2011
</metadata>
<g transform="translate(0.000000,47.000000) scale(0.100000,-0.100000)"
fill="#fff" stroke="none">
<path d="M360 365 c-35 -36 -68 -65 -72 -65 -16 0 -7 26 18 49 27 26 27 39 1
55 -14 9 -26 1 -69 -42 -43 -43 -51 -55 -42 -69 15 -24 29 -26 47 -8 11 10 18
12 23 4 3 -6 -12 -30 -35 -53 -43 -44 -52 -72 -25 -83 11 -4 37 15 83 61 60
59 91 79 91 59 0 -4 -34 -42 -75 -83 -55 -55 -74 -81 -69 -93 10 -27 37 -20
74 18 19 19 38 35 42 35 16 0 7 -27 -17 -50 -28 -27 -33 -58 -9 -67 11 -4 38
16 85 63 63 63 100 80 71 33 -10 -16 -10 -24 -1 -35 17 -21 32 -17 67 19 48
49 38 94 -14 66 -43 -22 -38 -1 10 51 39 42 45 54 36 65 -7 8 -18 15 -24 15
-6 0 -47 -36 -91 -80 -53 -53 -83 -76 -89 -70 -7 7 7 28 42 63 29 29 52 61 52
70 0 25 -28 32 -50 12 -10 -9 -24 -14 -30 -10 -8 5 4 24 36 56 40 41 45 50 34
64 -20 24 -32 19 -100 -50z"/>
<path d="M487 373 c-12 -11 -7 -41 7 -46 21 -8 50 17 43 37 -6 16 -38 22 -50
9z"/>
<path d="M670 325 c0 -10 11 -15 35 -15 l34 0 3 -92 c2 -54 7 -93 13 -93 6 0
11 39 13 93 l3 92 34 0 c24 0 35 5 35 15 0 12 -16 15 -85 15 -69 0 -85 -3 -85
-15z"/>
<path d="M1054 329 c-10 -17 13 -36 27 -22 12 12 4 33 -11 33 -5 0 -12 -5 -16
-11z"/>
<path d="M1234 329 c-31 -16 -47 -52 -47 -105 0 -35 5 -51 24 -70 30 -29 83
-40 122 -25 26 10 28 14 25 58 -3 48 -3 48 -42 51 -28 3 -37 0 -33 -10 2 -7
14 -12 26 -11 18 2 21 -2 21 -32 0 -34 -1 -35 -39 -35 -64 0 -97 57 -71 125
14 36 52 49 95 31 36 -16 55 -7 30 14 -20 17 -86 22 -111 9z"/>
<path d="M1117 313 c-4 -3 -7 -15 -7 -26 0 -15 -5 -18 -25 -15 -24 5 -25 4
-26 -58 -1 -35 -2 -69 -3 -76 -1 -6 5 -13 12 -15 9 -4 12 14 12 66 0 58 3 69
15 65 10 -4 15 -20 15 -50 0 -46 25 -84 54 -84 27 0 28 20 2 30 -23 8 -26 15
-26 55 0 38 3 45 20 45 11 0 20 5 20 10 0 6 -9 10 -20 10 -15 0 -20 7 -20 25
0 24 -10 32 -23 18z"/>
<path d="M816 271 c-3 -5 1 -25 9 -45 8 -20 22 -53 30 -73 19 -44 32 -36 56
35 l16 47 16 -40 c23 -54 33 -70 43 -69 11 2 63 136 57 147 -9 14 -22 -4 -38
-54 -9 -28 -20 -47 -23 -44 -4 3 -14 25 -22 48 -9 23 -22 42 -30 42 -8 0 -21
-19 -30 -42 -8 -23 -18 -45 -22 -48 -3 -3 -14 16 -23 44 -17 52 -29 68 -39 52z"/>
<path d="M1385 268 c-9 -24 -1 -143 10 -143 6 0 12 25 15 55 4 48 9 57 33 68
33 16 27 35 -7 22 -15 -5 -27 -5 -34 2 -8 8 -13 7 -17 -4z"/>
<path d="M1493 270 c-36 -15 -27 -29 13 -23 25 4 39 2 44 -8 12 -19 3 -29 -26
-29 -62 0 -85 -46 -39 -76 20 -13 31 -14 49 -6 17 7 27 7 35 -1 8 -8 11 6 11
55 0 40 -5 69 -12 76 -21 16 -52 21 -75 12z m57 -100 c-11 -21 -44 -27 -55
-10 -11 17 5 30 36 30 27 0 29 -2 19 -20z"/>
<path d="M1655 270 c-11 -4 -26 -5 -32 -3 -10 4 -13 -12 -13 -61 0 -36 0 -68
0 -71 0 -3 3 -6 8 -7 4 -2 9 21 12 51 5 57 23 80 54 68 14 -5 17 -18 16 -54
-2 -66 -1 -73 10 -73 6 0 10 22 10 48 0 55 18 86 46 80 15 -2 20 -14 24 -61 3
-31 10 -58 15 -60 13 -3 18 63 7 105 -7 28 -13 33 -41 36 -18 2 -39 -2 -47 -9
-8 -7 -14 -7 -14 -1 0 13 -31 20 -55 12z"/>
</g>
</svg>
